<svg width="24" height="24" viewBox="0 0 24 24" fill="none" xmlns="http://www.w3.org/2000/svg">
<rect width="24" height="24" fill="#1E1E1E"/>
<path d="M-2595 -2181C-2595 -2182.1 -2594.1 -2183 -2593 -2183H7418C7419.1 -2183 7420 -2182.1 7420 -2181V866C7420 867.104 7419.1 868 7418 868H-2593C-2594.1 868 -2595 867.104 -2595 866V-2181Z" fill="#404040"/>
<rect x="-52" y="-518" width="402" height="642" rx="4" fill="white"/>
<g clip-path="url(#clip0_1_6)">
<path d="M22 19C22 19.5304 21.7893 20.0391 21.4142 20.4142C21.0391 20.7893 20.5304 21 20 21H4C3.46957 21 2.96086 20.7893 2.58579 20.4142C2.21071 20.0391 2 19.5304 2 19V5C2 4.46957 2.21071 3.96086 2.58579 3.58579C2.96086 3.21071 3.46957 3 4 3H9L11 6H20C20.5304 6 21.0391 6.21071 21.4142 6.58579C21.7893 6.96086 22 7.46957 22 8V19Z" fill="#59287A" stroke="#59287A" stroke-width="2" stroke-linecap="round" stroke-linejoin="round"/>
</g>
<path d="M-2593 -2182H7418V-2184H-2593V-2182ZM7419 -2181V866H7421V-2181H7419ZM7418 867H-2593V869H7418V867ZM-2594 866V-2181H-2596V866H-2594ZM-2593 867C-2593.55 867 -2594 866.552 -2594 866H-2596C-2596 867.657 -2594.66 869 -2593 869V867ZM7419 866C7419 866.552 7418.55 867 7418 867V869C7419.66 869 7421 867.657 7421 866H7419ZM7418 -2182C7418.55 -2182 7419 -2181.55 7419 -2181H7421C7421 -2182.66 7419.66 -2184 7418 -2184V-2182ZM-2593 -2184C-2594.66 -2184 -2596 -2182.66 -2596 -2181H-2594C-2594 -2181.55 -2593.55 -2182 -2593 -2182V-2184Z" fill="white" fill-opacity="0.1"/>
<defs>
<clipPath id="clip0_1_6">
<rect width="24" height="24" fill="white"/>
</clipPath>
</defs>
</svg>
