<svg width="25" height="25" viewBox="0 0 25 25" fill="none" xmlns="http://www.w3.org/2000/svg">
<path d="M12.1484 13.5C12.7007 13.5 13.1484 13.0523 13.1484 12.5C13.1484 11.9477 12.7007 11.5 12.1484 11.5C11.5962 11.5 11.1484 11.9477 11.1484 12.5C11.1484 13.0523 11.5962 13.5 12.1484 13.5Z" stroke="#BDBDBD" stroke-width="2" stroke-linecap="round" stroke-linejoin="round"/>
<path d="M12.1484 6.5C12.7007 6.5 13.1484 6.05228 13.1484 5.5C13.1484 4.94772 12.7007 4.5 12.1484 4.5C11.5962 4.5 11.1484 4.94772 11.1484 5.5C11.1484 6.05228 11.5962 6.5 12.1484 6.5Z" stroke="#BDBDBD" stroke-width="2" stroke-linecap="round" stroke-linejoin="round"/>
<path d="M12.1484 20.5C12.7007 20.5 13.1484 20.0523 13.1484 19.5C13.1484 18.9477 12.7007 18.5 12.1484 18.5C11.5962 18.5 11.1484 18.9477 11.1484 19.5C11.1484 20.0523 11.5962 20.5 12.1484 20.5Z" stroke="#BDBDBD" stroke-width="2" stroke-linecap="round" stroke-linejoin="round"/>
</svg>
